<?xml version="1.0" ?><svg viewBox="0 0 32 32" xmlns="http://www.w3.org/2000/svg"><defs><style>.cls-1{fill:none;}</style></defs><title/><g data-name="Layer 2" id="Layer_2"><path d="M16,19a1,1,0,0,1-1-.76l-1.51-6.06A2.5,2.5,0,0,1,14,10a2.56,2.56,0,0,1,4,0,2.5,2.5,0,0,1,.46,2.19L17,18.24A1,1,0,0,1,16,19Zm0-8a.54.54,0,0,0-.44.22.52.52,0,0,0-.1.48L16,13.88l.54-2.18a.52.52,0,0,0-.1-.48A.54.54,0,0,0,16,11Z"/><circle cx="16" cy="21.5" r="1.5"/><path d="M16,29A13,13,0,1,1,29,16,13,13,0,0,1,16,29ZM16,5A11,11,0,1,0,27,16,11,11,0,0,0,16,5Z"/></g><g id="frame"><rect class="cls-1" height="32" width="32"/></g></svg>