<?xml version="1.0" encoding="UTF-8" standalone="no"?>
<svg xmlns:dc="http://purl.org/dc/elements/1.1/" xmlns:cc="http://creativecommons.org/ns#" xmlns:rdf="http://www.w3.org/1999/02/22-rdf-syntax-ns#" xmlns:svg="http://www.w3.org/2000/svg" xmlns="http://www.w3.org/2000/svg" xmlns:sodipodi="http://sodipodi.sourceforge.net/DTD/sodipodi-0.dtd" xmlns:inkscape="http://www.inkscape.org/namespaces/inkscape" width="52" height="52" version="1.1" id="svg7" sodipodi:docname="sxhkd.svg" inkscape:version="0.92.4 5da689c313, 2019-01-14" inkscape:export-filename="/home/zsucrilhos/_my-scripts/_icons/sxhkd.png" inkscape:export-xdpi="95.699997" inkscape:export-ydpi="95.699997">
  <metadata id="metadata11">
    <rdf:RDF>
      <cc:Work rdf:about="">
        <dc:format>image/svg+xml</dc:format>
        <dc:type rdf:resource="http://purl.org/dc/dcmitype/StillImage"/>
        <dc:title/>
      </cc:Work>
    </rdf:RDF>
  </metadata>
  <sodipodi:namedview pagecolor="#ffffff" bordercolor="#666666" borderopacity="1" objecttolerance="10" gridtolerance="10" guidetolerance="10" inkscape:pageopacity="0" inkscape:pageshadow="2" inkscape:window-width="1358" inkscape:window-height="728" id="namedview9" showgrid="false" inkscape:zoom="8" inkscape:cx="2.7949816" inkscape:cy="29.157115" inkscape:window-x="5" inkscape:window-y="35" inkscape:window-maximized="1" inkscape:current-layer="svg7"/>
  <defs id="defs3">
    <style id="current-color-scheme" type="text/css">
   .ColorScheme-Text { color:#d3dae3; } .ColorScheme-Highlight { color:#4285f4; }
  </style>
  </defs>
  <path style="color:#d3dae3;fill:#2e3440;fill-opacity:1;stroke-width:3.24858761" class="ColorScheme-Text" d="m 8.6666666,7.0847459 c 0,0 -6.4971751,0 -6.4971751,6.4971741 v 25.9887 c 0,6.497176 6.4971751,6.497176 6.4971751,6.497176 H 44.401129 c 0,0 6.497176,0 6.497176,-6.497176 v -25.9887 c 0,-6.4971741 -6.497176,-6.4971741 -6.497176,-6.4971741 z M 9.4788135,13.58192 h 4.8728815 c 0.449929,0 0.812146,0.362218 0.812146,0.812148 v 4.872881 c 0,0.449929 -0.362217,0.812147 -0.812146,0.812147 H 9.4788135 c -0.4499293,0 -0.8121469,-0.362218 -0.8121469,-0.812147 v -4.872881 c 0,-0.44993 0.3622176,-0.812148 0.8121469,-0.812148 z m 9.7457625,0 h 4.872882 c 0.449928,0 0.812146,0.362218 0.812146,0.812148 v 4.872881 c 0,0.449929 -0.362218,0.812147 -0.812146,0.812147 h -4.872882 c -0.44993,0 -0.812147,-0.362218 -0.812147,-0.812147 v -4.872881 c 0,-0.44993 0.362217,-0.812148 0.812147,-0.812148 z m 9.745762,0 h 4.872881 c 0.44993,0 0.812148,0.362218 0.812148,0.812148 v 4.872881 c 0,0.449929 -0.362218,0.812147 -0.812148,0.812147 h -4.872881 c -0.449929,0 -0.812147,-0.362218 -0.812147,-0.812147 v -4.872881 c 0,-0.44993 0.362218,-0.812148 0.812147,-0.812148 z m 9.745763,0 h 4.872881 c 0.44993,0 0.812147,0.362218 0.812147,0.812148 v 4.872881 c 0,0.449929 -0.362217,0.812147 -0.812147,0.812147 h -4.872881 c -0.449929,0 -0.812147,-0.362218 -0.812147,-0.812147 v -4.872881 c 0,-0.44993 0.362218,-0.812148 0.812147,-0.812148 z M 9.4788135,23.327683 h 4.8728815 c 0.449929,0 0.812146,0.362218 0.812146,0.812146 v 4.872882 c 0,0.44993 -0.362217,0.812147 -0.812146,0.812147 H 9.4788135 c -0.4499293,0 -0.8121469,-0.362217 -0.8121469,-0.812147 v -4.872882 c 0,-0.449928 0.3622176,-0.812146 0.8121469,-0.812146 z m 9.7457625,0 h 4.872882 c 0.449928,0 0.812146,0.362218 0.812146,0.812146 v 4.872882 c 0,0.44993 -0.362218,0.812147 -0.812146,0.812147 h -4.872882 c -0.44993,0 -0.812147,-0.362217 -0.812147,-0.812147 v -4.872882 c 0,-0.449928 0.362217,-0.812146 0.812147,-0.812146 z m 9.745762,0 h 4.872881 c 0.44993,0 0.812148,0.362218 0.812148,0.812146 v 4.872882 c 0,0.44993 -0.362218,0.812147 -0.812148,0.812147 h -4.872881 c -0.449929,0 -0.812147,-0.362217 -0.812147,-0.812147 v -4.872882 c 0,-0.449928 0.362218,-0.812146 0.812147,-0.812146 z m 9.745763,0 h 4.872881 c 0.44993,0 0.812147,0.362218 0.812147,0.812146 v 4.872882 c 0,0.44993 -0.362217,0.812147 -0.812147,0.812147 h -4.872881 c -0.449929,0 -0.812147,-0.362217 -0.812147,-0.812147 v -4.872882 c 0,-0.449928 0.362218,-0.812146 0.812147,-0.812146 z m -22.740113,9.745763 h 21.11582 c 0.449929,0 0.812146,0.362217 0.812146,0.812146 v 4.872882 c 0,0.44993 -0.362217,0.812146 -0.812146,0.812146 h -21.11582 c -0.449929,0 -0.812147,-0.362216 -0.812147,-0.812146 v -4.872882 c 0,-0.449929 0.362218,-0.812146 0.812147,-0.812146 z" id="path5" inkscape:connector-curvature="0"/>
</svg>